<svg xmlns="http://www.w3.org/2000/svg" version="1.1">
	<symbol id="close" viewBox="0 -960 960 960" fill="currentColor">
		<path d="m256-200-56-56 224-224-224-224 56-56 224 224 224-224 56 56-224 224 224 224-56 56-224-224-224 224Z"/>
	</symbol>
	<symbol id="menu" viewBox="0 -960 960 960" fill="currentColor">
		<path d="M120-240v-80h720v80H120Zm0-200v-80h720v80H120Zm0-200v-80h720v80H120Z"/>
	</symbol>
	<symbol id="pets" viewBox="0 -960 960 960" width="24px" fill="currentColor">
		<path d="M180-475q-42 0-71-29t-29-71q0-42 29-71t71-29q42 0 71 29t29 71q0 42-29 71t-71 29Zm180-160q-42 0-71-29t-29-71q0-42 29-71t71-29q42 0 71 29t29 71q0 42-29 71t-71 29Zm240 0q-42 0-71-29t-29-71q0-42 29-71t71-29q42 0 71 29t29 71q0 42-29 71t-71 29Zm180 160q-42 0-71-29t-29-71q0-42 29-71t71-29q42 0 71 29t29 71q0 42-29 71t-71 29ZM266-75q-45 0-75.5-34.5T160-191q0-52 35.5-91t70.5-77q29-31 50-67.5t50-68.5q22-26 51-43t63-17q34 0 63 16t51 42q28 32 49.5 69t50.5 69q35 38 70.5 77t35.5 91q0 47-30.5 81.5T694-75q-54 0-107-9t-107-9q-54 0-107 9t-107 9Z"/>
	</symbol>
	<symbol id="favorite" viewBox="0 -960 960 960" width="24px" fill="currentColor">
		<path d="m480-120-58-52q-101-91-167-157T150-447.5Q111-500 95.5-544T80-634q0-94 63-157t157-63q52 0 99 22t81 62q34-40 81-62t99-22q94 0 157 63t63 157q0 46-15.5 90T810-447.5Q771-395 705-329T538-172l-58 52Zm0-108q96-86 158-147.5t98-107q36-45.5 50-81t14-70.5q0-60-40-100t-100-40q-47 0-87 26.5T518-680h-76q-15-41-55-67.5T300-774q-60 0-100 40t-40 100q0 35 14 70.5t50 81q36 45.5 98 107T480-228Zm0-273Z"/>
	</symbol>
	<symbol id="favorite-filled" viewBox="0 -960 960 960" width="24px" fill="currentColor">
		<path d="m480-120-58-52q-101-91-167-157T150-447.5Q111-500 95.5-544T80-634q0-94 63-157t157-63q52 0 99 22t81 62q34-40 81-62t99-22q94 0 157 63t63 157q0 46-15.5 90T810-447.5Q771-395 705-329T538-172l-58 52Z"/>
	</symbol>
	<symbol id="comment" viewBox="0 -960 960 960" width="24px" fill="currentColor">
		<path d="M240-400h480v-80H240v80Zm0-120h480v-80H240v80Zm0-120h480v-80H240v80ZM880-80 720-240H160q-33 0-56.5-23.5T80-320v-480q0-33 23.5-56.5T160-880h640q33 0 56.5 23.5T880-800v720ZM160-320h594l46 45v-525H160v480Zm0 0v-480 480Z"/>
	</symbol>
	<symbol id="comment-filled" viewBox="0 -960 960 960" width="24px" fill="currentColor">
		<path d="M240-400h480v-80H240v80Zm0-120h480v-80H240v80Zm0-120h480v-80H240v80Zm-80 400q-33 0-56.5-23.5T80-320v-480q0-33 23.5-56.5T160-880h640q33 0 56.5 23.5T880-800v720L720-240H160Z"/>
	</symbol>
	<symbol id="photo" viewBox="0 -960 960 960" width="24px" fill="currentColor">
		<path d="M200-120q-33 0-56.5-23.5T120-200v-560q0-33 23.5-56.5T200-840h560q33 0 56.5 23.5T840-760v560q0 33-23.5 56.5T760-120H200Zm0-80h560v-560H200v560Zm40-80h480L570-480 450-320l-90-120-120 160Zm-40 80v-560 560Z"/>
	</symbol>
	<symbol id="video" viewBox="0 -960 960 960" width="24px" fill="currentColor">
		<path d="M160-160q-33 0-56.5-23.5T80-240v-480q0-33 23.5-56.5T160-800h480q33 0 56.5 23.5T720-720v180l160-160v440L720-420v180q0 33-23.5 56.5T640-160H160Zm0-80h480v-480H160v480Zm0 0v-480 480Z"/>
	</symbol>
	<symbol id="news" viewBox="0 -960 960 960" width="24px" fill="currentColor">
		<path d="M200-120q-33 0-56.5-23.5T120-200v-560q0-33 23.5-56.5T200-840h440l200 200v440q0 33-23.5 56.5T760-120H200Zm0-80h560v-400H600v-160H200v560Zm80-80h400v-80H280v80Zm0-320h200v-80H280v80Zm0 160h400v-80H280v80Zm-80-320v160-160 560-560Z"/>
	</symbol>
	<symbol id="plus" viewBox="0 -960 960 960" width="24px" fill="currentColor">
		<path d="M440-440H200v-80h240v-240h80v240h240v80H520v240h-80v-240Z"/>
	</symbol>
	<symbol id="notifications" viewBox="0 -960 960 960" width="24px" fill="currentColor">
		<path d="M160-200v-80h80v-280q0-83 50-147.5T420-792v-28q0-25 17.5-42.5T480-880q25 0 42.5 17.5T540-820v28q80 20 130 84.5T720-560v280h80v80H160Zm320-300Zm0 420q-33 0-56.5-23.5T400-160h160q0 33-23.5 56.5T480-80ZM320-280h320v-280q0-66-47-113t-113-47q-66 0-113 47t-47 113v280Z"/>
	</symbol>
	<symbol id="notifications-filled" viewBox="0 -960 960 960" width="24px" fill="currentColor">
		<path d="M160-200v-80h80v-280q0-83 50-147.5T420-792v-28q0-25 17.5-42.5T480-880q25 0 42.5 17.5T540-820v28q80 20 130 84.5T720-560v280h80v80H160ZM480-80q-33 0-56.5-23.5T400-160h160q0 33-23.5 56.5T480-80Z"/>
	</symbol>
	<symbol id="groups-filled" viewBox="0 -960 960 960" width="24px" fill="currentColor">
		<path d="M40-160v-112q0-34 17.5-62.5T104-378q62-31 126-46.5T360-440q66 0 130 15.5T616-378q29 15 46.5 43.5T680-272v112H40Zm720 0v-120q0-44-24.5-84.5T666-434q51 6 96 20.5t84 35.5q36 20 55 44.5t19 53.5v120H760ZM360-480q-66 0-113-47t-47-113q0-66 47-113t113-47q66 0 113 47t47 113q0 66-47 113t-113 47Zm400-160q0 66-47 113t-113 47q-11 0-28-2.5t-28-5.5q27-32 41.5-71t14.5-81q0-42-14.5-81T544-792q14-5 28-6.5t28-1.5q66 0 113 47t47 113Z"/>
	</symbol>
	<symbol id="groups" viewBox="0 -960 960 960" width="24px" fill="currentColor">
		<path d="M40-160v-112q0-34 17.5-62.5T104-378q62-31 126-46.5T360-440q66 0 130 15.5T616-378q29 15 46.5 43.5T680-272v112H40Zm720 0v-120q0-44-24.5-84.5T666-434q51 6 96 20.5t84 35.5q36 20 55 44.5t19 53.5v120H760ZM360-480q-66 0-113-47t-47-113q0-66 47-113t113-47q66 0 113 47t47 113q0 66-47 113t-113 47Zm400-160q0 66-47 113t-113 47q-11 0-28-2.5t-28-5.5q27-32 41.5-71t14.5-81q0-42-14.5-81T544-792q14-5 28-6.5t28-1.5q66 0 113 47t47 113ZM120-240h480v-32q0-11-5.5-20T580-306q-54-27-109-40.5T360-360q-56 0-111 13.5T140-306q-9 5-14.5 14t-5.5 20v32Zm240-320q33 0 56.5-23.5T440-640q0-33-23.5-56.5T360-720q-33 0-56.5 23.5T280-640q0 33 23.5 56.5T360-560Zm0 320Zm0-400Z"/>
	</symbol>
</svg>